<svg width="45" height="45" viewBox="0 0 15 15" fill="none" xmlns="http://www.w3.org/2000/svg">
<path d="M7.5 8.69995C8.53553 8.69995 9.375 7.86049 9.375 6.82495C9.375 5.78942 8.53553 4.94995 7.5 4.94995C6.46447 4.94995 5.625 5.78942 5.625 6.82495C5.625 7.86049 6.46447 8.69995 7.5 8.69995Z" fill="url(#paint0_linear_27_273)"/>
<path d="M7.5 2.25C5.025 2.25 3 4.35 3 6.9C3 8.925 5.7 12.45 6.9 13.95C7.2 14.325 7.725 14.325 8.025 13.95C9.225 12.45 11.925 8.85 11.925 6.9C12 4.35 9.975 2.25 7.5 2.25ZM7.5 8.25C6.675 8.25 6 7.575 6 6.75C6 5.925 6.675 5.25 7.5 5.25C8.325 5.25 9 5.925 9 6.75C9 7.575 8.325 8.25 7.5 8.25Z" fill="url(#paint1_linear_27_273)"/>
<defs>
<linearGradient id="paint0_linear_27_273" x1="5.64825" y1="6.7972" x2="9.39825" y2="6.7972" gradientUnits="userSpaceOnUse">
<stop stop-color="#FFC80B"/>
<stop offset="1" stop-color="#E89318"/>
</linearGradient>
<linearGradient id="paint1_linear_27_273" x1="3" y1="8.25" x2="12" y2="8.25" gradientUnits="userSpaceOnUse">
<stop stop-color="#FF5640"/>
<stop offset="1" stop-color="#CC3737"/>
</linearGradient>
</defs>
</svg>
