<svg xmlns="http://www.w3.org/2000/svg" width="32" height="32"><g stroke-linecap="round" stroke-linejoin="round"><path fill="#e5ffd5" stroke="#71c837" d="M12.66 22.968H8.916l-2.381 3.987H25.19l-2.393-4.007H20.15"/><path fill="#f9f9f9" stroke="#a6bcc0" d="M16 5.046a7.755 7.755 0 0 0-7.75 7.75c0 2.138.88 4.067 2.281 5.469.028.028.034.067.063.094l3.562 4v.03L16 24.484h.031l1.875-2.093v-.031l3.969-4.5h-.031a7.735 7.735 0 0 0 1.906-5.063A7.755 7.755 0 0 0 16 5.046zm0 4.719a3.035 3.035 0 0 1 3.031 3.03A3.035 3.035 0 0 1 16 15.828a3.035 3.035 0 0 1-3.031-3.031A3.035 3.035 0 0 1 16 9.765z"/><g stroke="#71c837" transform="translate(-285.87 -1291.341)"><circle cx="8" cy="6" r="11" fill="#e5ffd5" stroke-dashoffset="1.3" stroke-width="2.801" transform="matrix(.35644 0 0 .3575 304.563 1312.2)"/><path fill="#d5fff6" d="m308.942 1313.341-2 2.01m0-.007-1.053-1.01"/></g><path fill="none" stroke="#fff" d="M16.112 6.06a6.63 6.63 0 0 1 6.629 6.629"/></g></svg>